<?xml version="1.0" standalone="no"?>
<!DOCTYPE svg PUBLIC "-//W3C//DTD SVG 20010904//EN"
 "http://www.w3.org/TR/2001/REC-SVG-20010904/DTD/svg10.dtd">
<svg version="1.0" xmlns="http://www.w3.org/2000/svg"
 width="146.000000pt" height="146.000000pt" viewBox="0 0 146.000000 146.000000"
 preserveAspectRatio="xMidYMid meet">
<metadata>
Created by potrace 1.11, written by Peter Selinger 2001-2013
</metadata>
<g transform="translate(0.000000,146.000000) scale(0.100000,-0.100000)"
fill="#000000" stroke="none">
<path d="M590 1439 c-19 -5 -51 -11 -70 -14 -144 -24 -282 -127 -396 -295 -68
-101 -98 -167 -109 -235 -12 -77 -10 -238 4 -302 12 -59 108 -263 124 -263 4
0 6 -4 3 -9 -9 -14 113 -141 129 -134 9 3 15 -1 15 -9 0 -14 39 -43 47 -34 3
3 14 -4 26 -14 17 -16 23 -17 36 -7 12 10 14 9 8 -7 -6 -14 -4 -17 8 -12 9 3
14 2 10 -3 -3 -5 8 -19 24 -30 22 -16 31 -18 35 -9 3 9 8 8 16 -5 6 -10 23
-17 40 -17 17 0 30 -4 30 -10 0 -5 10 -10 23 -10 18 0 19 2 7 11 -12 9 -12 10
3 5 10 -3 23 -6 28 -6 6 0 7 -6 3 -13 -5 -8 -2 -8 9 2 13 10 20 11 30 2 8 -6
16 -8 19 -6 7 7 43 14 93 19 22 2 57 11 77 20 21 9 41 16 46 16 22 0 103 85
126 133 89 181 -50 448 -269 517 -64 20 -99 61 -108 126 -8 58 48 137 92 131
28 -4 51 -37 51 -74 0 -29 37 -53 75 -49 28 3 30 7 32 45 2 34 -3 50 -27 80
-85 105 -196 108 -327 9 -73 -56 -93 -121 -60 -200 20 -48 49 -73 142 -121 48
-25 102 -63 137 -97 52 -52 57 -61 64 -116 17 -131 -3 -172 -101 -204 -22 -8
-53 -15 -70 -16 -40 -3 -116 16 -109 27 3 5 -1 6 -9 3 -8 -3 -21 1 -28 8 -8 7
-27 20 -44 28 -32 16 -108 71 -113 82 -3 6 -23 29 -68 80 -13 15 -24 32 -24
36 0 5 -9 27 -20 50 -11 22 -20 46 -20 52 0 6 -4 8 -10 5 -6 -3 -7 1 -4 10 4
8 1 22 -6 30 -7 8 -10 15 -6 15 3 0 1 12 -5 28 -6 15 -13 47 -15 72 -2 25 -6
58 -8 75 -4 35 26 159 54 218 21 45 120 157 138 157 6 0 27 16 47 37 19 20 35
33 35 28 0 -4 6 -3 13 2 30 24 115 36 255 37 81 0 159 -3 174 -6 54 -13 133
-64 195 -125 35 -35 67 -63 72 -63 29 0 110 -130 127 -205 4 -16 10 -32 14
-35 13 -9 28 -135 24 -205 -4 -77 -51 -223 -91 -281 -37 -56 -24 -100 25 -78
9 4 20 6 24 6 10 -2 68 77 68 91 0 6 10 21 22 34 12 13 16 23 9 23 -8 0 -6 9
7 25 12 15 20 41 20 67 1 23 6 44 11 46 6 2 11 10 11 18 0 9 -4 13 -8 10 -5
-3 -6 8 -4 25 2 16 8 29 13 29 12 0 12 143 0 172 -77 192 -130 292 -193 366
-15 18 -28 37 -28 43 0 6 -20 19 -45 30 -24 11 -47 24 -50 30 -10 15 -185 96
-225 103 -58 12 -263 15 -300 5z m-380 -1177 c0 -8 -1 -13 -3 -11 -1 2 -9 12
-16 22 -12 15 -12 17 3 11 9 -3 16 -13 16 -22z m65 -21 c11 -36 -11 -17 -24
21 -10 29 -10 31 3 18 7 -8 17 -26 21 -39z"/>
</g>
</svg>
