<?xml version="1.0" encoding="utf-8"?>
<!-- Generator: Adobe Illustrator 18.1.1, SVG Export Plug-In . SVG Version: 6.00 Build 0)  -->
<svg version="1.1" id="Layer_1" xmlns="http://www.w3.org/2000/svg" xmlns:xlink="http://www.w3.org/1999/xlink" x="0px" y="0px"
	 width="101px" height="148px" viewBox="0 0 101 148" enable-background="new 0 0 101 148" xml:space="preserve">
<g>
	<polygon fill="#231F20" points="8.4,1.1 0,56.7 0,57.1 0.4,57.1 1.2,56.9 9.5,1.7 8.6,1 9.1,0.5 8.5,0.5 	"/>
	<polygon fill="#231F20" points="9.5,1.7 53.4,42.3 54.5,42 54.6,42.6 54.5,42 54.8,42 10.8,1.4 10.1,1.1 10.2,0.8 9.6,0.3 9.5,0.1 
		9.1,0.5 8.6,1 	"/>
	<polygon fill="#231F20" points="100,35.6 99.8,35.1 11.6,0.4 10.5,0 10.3,0.5 10.2,0.8 10.1,1.1 10.8,1.4 98.4,35.9 	"/>
	<polygon fill="#231F20" points="55.3,43.1 99.9,36.8 100.1,36.1 100,35.6 98.4,35.9 54.8,42 54.5,42 54.6,42.6 55.2,42.5 	"/>
	<polygon fill="#231F20" points="0.5,57.7 1,57.3 1.5,58 54.1,43.3 54,42.6 54.6,42.6 54.5,42 53.4,42.3 1.2,56.9 0.4,57.1 
		0.5,57.1 	"/>
	<polygon fill="#231F20" points="1.5,58 1,57.3 0.5,57.7 1.1,57.7 0.9,59.2 64.3,147.2 64.9,147.3 64.8,145.9 	"/>
	<polygon fill="#231F20" points="54.1,43.3 64.8,145.9 64.9,147.3 65,147.8 65.1,147.7 65.9,145.1 55.3,43.1 55.2,42.5 54.6,42.6 
		54,42.6 	"/>
	<polygon fill="#231F20" points="100.1,36.1 99.9,36.8 65.9,145.1 65.1,147.7 65.2,147.6 65.6,148 65.3,147.5 66.7,146.5 101,37.2 
		100.3,36.5 100.7,36.1 100.2,36.3 	"/>
</g>
</svg>
