<?xml version="1.0" encoding="utf-8"?>
<!-- Generator: Adobe Illustrator 18.1.1, SVG Export Plug-In . SVG Version: 6.00 Build 0)  -->
<svg version="1.1" id="Layer_1" xmlns="http://www.w3.org/2000/svg" xmlns:xlink="http://www.w3.org/1999/xlink" x="0px" y="0px"
	 width="53px" height="130px" viewBox="0 0 53 130" enable-background="new 0 0 53 130" xml:space="preserve">
<g>
	<polygon fill="#231F20" points="1.2,92.9 8.6,1.8 7.7,0.7 8.1,0.3 7.5,0.3 7.5,1.3 0.1,92.9 0,93.4 0,93.7 0.2,93.5 	"/>
	<polygon fill="#231F20" points="1.2,92.9 0.2,93.5 0.3,93.5 0.5,94 1,93.7 1.3,94.2 51.6,58.3 52.1,56.8 52,56.6 	"/>
	<polygon fill="#231F20" points="52.5,55.5 9.3,1 8.5,0 8.1,0.3 7.7,0.7 8.6,1.8 52,56.6 52.1,56.8 52.2,56.6 	"/>
	<polygon fill="#231F20" points="52.4,57.2 52.8,56.7 52.2,56.6 52.2,56.6 52.1,56.8 51.6,58.3 24.8,129.3 25.2,129.9 25.8,129.8 
		53,57.7 	"/>
	<polygon fill="#231F20" points="1.3,94.2 1,93.7 0.5,94 0.8,94.5 0.4,94.8 23.9,130 24.9,130 25.2,129.9 24.8,129.3 	"/>
</g>
</svg>
