<?xml version="1.0" encoding="utf-8"?>
<!-- Generator: Adobe Illustrator 18.1.1, SVG Export Plug-In . SVG Version: 6.00 Build 0)  -->
<svg version="1.1" id="Layer_1" xmlns="http://www.w3.org/2000/svg" xmlns:xlink="http://www.w3.org/1999/xlink" x="0px" y="0px"
	 width="575px" height="184px" viewBox="0 0 575 184" enable-background="new 0 0 575 184" xml:space="preserve">
<g>
	<polygon fill="#231F20" points="186.9,75.6 186.6,75.2 187.2,74.9 186.5,74.9 186.5,74.4 139.1,91.8 138.6,92.7 139.2,93.1 	"/>
	<polygon fill="#231F20" points="186.5,74.4 186.5,74.9 187.2,74.9 187,74.3 187.8,74 187.8,1.7 187.3,1.3 186.5,2.9 	"/>
	<polygon fill="#231F20" points="185,1.3 186,0.5 185.2,0 95.1,12.4 95.1,12.9 95.5,13.6 	"/>
	<polygon fill="#231F20" points="137.3,92.4 137.8,91.6 118.6,56.2 118.1,56.5 117.6,57 136.9,92.6 	"/>
	<polygon fill="#231F20" points="94.2,13.9 116.7,55.3 117.5,55.4 118,55.1 95.5,13.6 95.1,12.9 95.1,13.1 94.5,13.1 94.7,13.7 	"/>
	<polygon fill="#231F20" points="137.3,92.4 137.6,92.3 137.8,92.9 138.1,92.4 138.6,92.7 139.1,91.8 186.5,2.9 187.3,1.3 
		187.1,1.2 185.2,2.7 137.8,91.6 	"/>
	<polygon fill="#231F20" points="118,55.1 117.5,55.4 117.8,55.4 117.7,56.1 118.1,56.5 118.1,56.5 118.6,56.2 185.2,2.7 187.1,1.2 
		186.8,0.9 186,0.5 185,1.3 	"/>
	<polygon fill="#231F20" points="187.1,1.2 187.3,1.3 187.8,1.7 249.5,55.8 250.3,55.5 250.4,54.9 188.4,0.6 187.3,1 187.2,0.4 
		186.9,0.9 186.8,0.9 	"/>
	<polygon fill="#231F20" points="187,74.3 187.2,74.9 187.7,74.5 188.2,75.2 250.1,56.9 250.1,56.1 250.7,56.1 250.2,55.9 
		250.3,55.5 249.5,55.8 187.8,74 	"/>
	<polygon fill="#231F20" points="186.9,75.6 248.4,162.2 250.1,163.3 250.1,162.5 188.2,75.2 187.7,74.5 187.2,74.9 186.6,75.2 	"/>
	<polygon fill="#231F20" points="250.1,163.3 251.1,163.9 250.7,164.4 251.2,164 251.4,164.1 251.4,57.4 250.4,56.5 250.7,56.1 
		250.1,56.1 250.1,56.9 250.1,162.5 	"/>
	<polygon fill="#231F20" points="138.4,94.1 248.6,163.8 250.7,163.8 250.7,164.4 251.1,163.9 250.1,163.3 248.4,162.2 139.2,93.1 
		138.6,92.7 138.1,92.4 137.8,92.9 138.4,92.9 	"/>
	<polygon fill="#231F20" points="250,165 250.1,164.3 250.7,164.4 250.7,163.8 248.6,163.8 138.4,163.8 138.4,164.1 140.1,165 	"/>
	<polygon fill="#231F20" points="251.4,57.4 321.8,116.8 322.3,117.2 322.2,117.1 322.8,116.9 322.2,116.9 322.1,115.4 251.9,56.2 
		251,56.6 250.7,56.1 250.4,56.5 	"/>
	<polygon fill="#231F20" points="138,163.8 137.8,164.4 138.3,164.1 138.4,164.2 138.4,164.1 138.4,163.8 138.4,94.1 138.4,92.9 
		137.8,92.9 138,93.5 137.2,93.8 137.2,163.5 	"/>
	<polygon fill="#231F20" points="137.6,163.8 137.8,164.4 138,163.8 137.2,163.5 41.9,125.9 40.7,126.3 40.8,126.8 136,164.4 	"/>
	<polygon fill="#231F20" points="41.9,125.9 137.2,93.8 138,93.5 137.8,92.9 137.6,92.3 137.3,92.4 136.9,92.6 42.7,124.3 
		40.5,126.2 40.5,126.4 40.7,126.3 	"/>
	<polygon fill="#231F20" points="40.5,126.2 42.7,124.3 117.6,57 118.1,56.5 118.1,56.5 117.7,56.1 117.7,56.7 116.2,56.6 
		40.2,124.8 40.6,125.5 40.1,125.8 40.6,126.2 	"/>
	<polygon fill="#231F20" points="117.5,55.4 116.7,55.3 3,46.3 0.9,47 1.1,47.4 116.2,56.6 117.7,56.7 117.7,56.1 117.8,55.4 	"/>
	<polygon fill="#231F20" points="92.9,13 0.7,45.7 0.6,46.5 0.9,47 3,46.3 94.2,13.9 94.7,13.7 94.5,13.1 94.2,13.7 	"/>
	<polygon fill="#231F20" points="40.2,124.8 1.1,47.4 0.9,47 0.6,46.5 0.6,46.7 0,46.6 0.6,46.9 0,48.1 39.2,125.5 39.9,125.2 
		40.1,125.8 40.6,125.5 	"/>
	<polygon fill="#231F20" points="412.1,182.6 412.6,182.5 434.3,111.4 433.7,110.8 433.3,110.6 411.7,181.4 	"/>
	<polygon fill="#231F20" points="433.6,109.4 380.6,86.1 380.1,86.4 380.4,87.4 433.3,110.6 433.7,110.8 433.6,110.7 434,110.2 
		433.4,110.1 	"/>
	<polygon fill="#231F20" points="323.6,117.2 324.1,116.9 379,87.1 378.8,86.6 378.3,86.1 323.4,115.9 323.5,116.8 322.8,116.9 
		323.1,117.4 	"/>
	<polygon fill="#231F20" points="410.4,181.6 410.9,183 411.1,183.6 411.7,183.4 411.5,182.8 412.1,182.6 411.7,181.4 380.4,87.4 
		380.1,86.4 379.8,86.7 379.4,86.2 379,86.7 378.8,86.6 379,87.1 	"/>
	<polygon fill="#231F20" points="486.9,161.8 412.6,182.5 412.1,182.6 411.5,182.8 411.7,183.4 411.9,184 413.4,183.6 487.3,163 
		488.1,162.8 487.9,162.7 488.1,162.1 487.6,162.6 	"/>
	<polygon fill="#231F20" points="433.7,110.8 434.3,111.4 486.9,161.8 487.6,162.6 488.1,162.1 487.5,162 487.6,160.9 435.1,110.4 
		434.3,110.8 434,110.2 433.6,110.7 	"/>
	<polygon fill="#231F20" points="487.5,162 488.1,162.1 487.7,161.6 488.9,160.7 501.3,82.2 500.7,80.1 500.3,80.2 487.6,160.9 	"/>
	<polygon fill="#231F20" points="453.5,25.2 453.3,26.3 500.1,79 500.4,78.8 499.9,76.9 453.7,24.9 	"/>
	<polygon fill="#231F20" points="380,86.3 379.4,86.2 379.8,86.7 380.1,86.4 380.6,86.1 451.9,26.7 452.2,25.4 451.8,25.2 
		380.1,84.8 	"/>
	<polygon fill="#231F20" points="433.6,109.4 433.4,110.1 434,110.2 433.8,109.7 434.9,109.1 453.3,26.3 453.5,25.2 453.5,25.3 
		452.9,25 452.6,25.6 452.2,25.4 451.9,26.7 	"/>
	<polygon fill="#231F20" points="434.9,109.1 433.8,109.7 434,110.2 434.3,110.8 435.1,110.4 500.3,80.2 500.7,80.1 500.5,79.4 
		501.1,79.2 500.5,79.3 500.4,78.8 500.1,79 	"/>
	<polygon fill="#231F20" points="553.8,178.7 554.6,177.6 559.3,113.2 558.6,111.2 558.1,111.5 553.3,178.2 	"/>
	<polygon fill="#231F20" points="516.5,140.5 488.9,160.7 487.7,161.6 488.1,162.1 488.4,162.6 489.5,161.9 517.2,141.6 
		516.8,141.2 517.2,140.7 516.6,140.9 	"/>
	<polygon fill="#231F20" points="558.2,110 557.7,110.3 517.6,139.7 517.8,140.4 518.2,140.8 558.1,111.5 558.6,111.2 558.3,110.4 
		558.9,110.2 558.3,110.4 	"/>
	<polygon fill="#231F20" points="251.9,56.2 314.3,29.1 314.2,28.4 313.9,27.9 251.7,54.9 251.3,56.2 250.7,56.1 251,56.6 	"/>
	<polygon fill="#231F20" points="378.3,86.1 378.8,86.6 379,86.7 379.4,86.2 378.8,86.2 378.8,84.9 315.9,28.4 315.5,28.6 
		315.6,29.7 	"/>
	<polygon fill="#231F20" points="322.1,115.4 322.2,116.9 322.8,116.9 323.5,116.8 323.4,115.9 315.6,29.7 315.5,28.6 315.1,28.8 
		314.8,28.2 314.3,28.6 314.2,28.4 314.3,29.1 	"/>
	<polygon fill="#231F20" points="573.7,152.5 554.6,177.6 553.8,178.7 554.3,179.2 553.9,179.7 554.3,180 554.7,179.6 574.2,154 
		574.8,153.2 574.9,153 574.4,152.6 573.8,152.9 	"/>
	<polygon fill="#231F20" points="558.6,111.2 559.3,113.2 573.7,152.5 573.8,152.9 574.4,152.6 575,152.4 574.5,151 559.6,110.4 
		559.4,110 558.9,110.2 558.3,110.4 	"/>
	<polygon fill="#231F20" points="500.7,80.1 501.3,82.2 516.5,140.5 516.6,140.9 517.2,140.7 517.7,140.3 517.8,140.4 517.6,139.7 
		502.1,80.4 501.8,79.3 501.7,79 501.1,79.2 500.5,79.4 	"/>
	<polygon fill="#231F20" points="553.8,178.7 553.3,178.2 518.2,140.8 517.8,140.4 517.7,140.3 517.2,140.7 516.8,141.2 
		517.2,141.6 551.9,178.5 552.8,179.5 553.4,180.1 553.4,180.1 553.9,179.7 554.3,179.2 	"/>
</g>
</svg>
