<?xml version="1.0" encoding="utf-8"?>
<!-- Generator: Adobe Illustrator 18.1.1, SVG Export Plug-In . SVG Version: 6.00 Build 0)  -->
<svg version="1.1" id="Layer_1" xmlns="http://www.w3.org/2000/svg" xmlns:xlink="http://www.w3.org/1999/xlink" x="0px" y="0px"
	 width="145px" height="174px" viewBox="0 0 145 174" enable-background="new 0 0 145 174" xml:space="preserve">
<g>
	<polygon fill="#231F20" points="143.6,2 143.8,0.3 144.4,0.4 144,0 143.1,0.9 84.3,59.6 84.2,60.6 84.7,60.8 	"/>
	<polygon fill="#231F20" points="145,0.5 144.4,0.4 143.8,0.3 143.6,2 134.5,78.7 135.2,78.9 135.7,79 144.8,2 	"/>
	<polygon fill="#231F20" points="135.2,78.9 134.5,78.7 84.7,60.8 84.2,60.6 84.2,61 83.7,61 84.2,61.1 84.1,61.8 133.5,79.6 
		134.8,79 135,79.5 135.1,78.9 	"/>
	<polygon fill="#231F20" points="84.1,61.8 84.2,61.1 83.7,61 83.1,60.9 83.1,61 82.9,61.8 74.2,107.6 74.7,107.9 75.4,107.5 	"/>
	<polygon fill="#231F20" points="75.1,109 75.7,108.7 134.5,80.4 135.3,80 135,79.5 134.8,79 133.5,79.6 75.4,107.5 74.7,107.9 
		75,108.1 74.6,108.6 75.2,108.8 	"/>
	<polygon fill="#231F20" points="27.1,141.3 73.3,110.2 73.8,109.1 72.9,109 26.4,140.3 26.8,140.8 26.3,141.1 26.8,140.8 	"/>
	<polygon fill="#231F20" points="46.4,172.4 46.8,173 47.5,172.9 74.9,109.5 75.1,109 75.2,108.8 74.6,108.6 74.6,109.1 73.8,109.1 
		73.3,110.2 	"/>
	<polygon fill="#231F20" points="1.7,104.8 72.9,109 73.8,109.1 74.6,109.1 74.6,108.6 74.7,108 72.5,107.8 1.6,103.6 0.5,103.6 
		0.5,104.2 1,103.8 	"/>
	<polygon fill="#231F20" points="25.8,141.4 25.8,141.4 26.3,141.1 26.8,140.8 26.4,140.3 1.7,104.8 1,103.8 0.5,104.2 0,104.5 
		0.2,104.7 0.7,105.6 25.5,141 	"/>
	<polygon fill="#231F20" points="46.9,173.2 46.8,173 46.4,172.4 27.1,141.3 26.8,140.8 26.3,141.1 25.8,141.4 25.8,141.4 
		26.1,141.9 45.4,173 45.8,173.7 46,174 46.5,173.7 47,173.4 	"/>
</g>
</svg>
