<?xml version="1.0" encoding="utf-8"?>
<!-- Generator: Adobe Illustrator 18.1.1, SVG Export Plug-In . SVG Version: 6.00 Build 0)  -->
<svg version="1.1" id="Layer_1" xmlns="http://www.w3.org/2000/svg" xmlns:xlink="http://www.w3.org/1999/xlink" x="0px" y="0px"
	 width="85px" height="82px" viewBox="0 0 85 82" enable-background="new 0 0 85 82" xml:space="preserve">
<g>
	<polygon fill="#231F20" points="0.3,52 0.1,51.7 44.7,1.1 45.7,0 46.1,0.3 45.7,0.7 46.1,1.1 1.3,51.8 	"/>
	<polygon fill="#231F20" points="0.3,52 1.3,51.8 83.8,42.3 84.2,42.6 83.4,43.4 1.5,52.9 0.4,52.1 0.1,52.5 0,52 	"/>
	<polygon fill="#231F20" points="84.2,42.6 83.8,42.3 46.1,1.1 45.7,0.7 46.1,0.3 46.4,0 46.9,0.5 84.4,41.4 85,42 84.6,42.3 
		84.9,42.7 84.6,42.3 	"/>
	<polygon fill="#231F20" points="42.6,81 42.4,80.9 83.4,43.4 84.2,42.6 84.6,42.3 84.9,42.7 84.7,43.1 85,43.3 44,80.9 	"/>
	<polygon fill="#231F20" points="1.5,52.9 42.4,80.9 42.6,81 42.4,81.1 42.5,81.6 42.2,82 42,81.8 41.5,81.5 0.3,53.3 0.5,52.7 
		0.1,52.5 0.4,52.1 	"/>
</g>
</svg>
