<?xml version="1.0" encoding="utf-8"?>
<!-- Generator: Adobe Illustrator 18.1.1, SVG Export Plug-In . SVG Version: 6.00 Build 0)  -->
<svg version="1.1" id="Layer_1" xmlns="http://www.w3.org/2000/svg" xmlns:xlink="http://www.w3.org/1999/xlink" x="0px" y="0px"
	 width="128px" height="150px" viewBox="0 0 128 150" enable-background="new 0 0 128 150" xml:space="preserve">
<g>
	<polygon fill="#231F20" points="127.3,48.9 120.8,114.4 121.6,115 121.9,115.2 128,53.6 128,48.3 	"/>
	<polygon fill="#231F20" points="14.9,37.4 0.2,89.5 0,90.1 0.6,90.3 0.5,89.7 1.4,89.6 16.1,37.3 15.4,36.8 15.8,36.3 15.2,36.1 	
		"/>
	<polygon fill="#231F20" points="0.3,90.8 0.8,91.3 58.6,149.3 59.7,149.4 59.9,148.9 1.9,90.8 0.6,90.9 0.6,90.3 0.2,90.7 	"/>
	<polygon fill="#231F20" points="59.7,149.4 59.6,149.8 60.1,150 59.8,149.5 61.2,148.7 81.5,87.1 81,86.8 80.3,86.8 59.9,148.9 	
		"/>
	<polygon fill="#231F20" points="16.1,37.3 79.5,85.6 80.6,85.6 80.6,85 16.9,36.4 16.1,36.8 15.8,36.3 15.4,36.8 	"/>
	<polygon fill="#231F20" points="80.6,85.6 79.5,85.6 1.4,89.6 0.5,89.7 0.6,90.3 0.6,90.9 1.9,90.8 80.3,86.8 81,86.8 80.8,86.6 
		81.2,86.1 80.6,86.1 	"/>
	<polygon fill="#231F20" points="80.6,85 80.6,85.6 80.6,86.1 81.2,86.1 80.8,85.7 81.8,84.8 86.7,1.7 86.1,0.9 85.5,1.2 	"/>
	<polygon fill="#231F20" points="85.2,0 84.5,0.3 16.5,35.2 15.5,35.8 15.5,35.8 15.8,36.3 16.1,36.8 16.9,36.4 85.5,1.2 86.1,0.9 
		85.8,0.6 85.8,0.6 	"/>
	<polygon fill="#231F20" points="126.6,45.1 87,0.1 86.7,0.5 86.2,0.2 85.8,0.6 86.1,0.9 86.7,1.7 127.1,47.5 127.6,47.1 128,47.5 
		128,46.6 	"/>
	<polygon fill="#231F20" points="127.1,47.5 81.8,84.8 80.8,85.7 81.2,86.1 81.5,85.7 82.1,86.1 127.3,48.9 128,48.3 128,47.5 
		127.6,47.1 	"/>
	<polygon fill="#231F20" points="81,86.8 81.5,87.1 120.1,115.4 120.9,115 121.2,115.5 121.5,115 121.6,115 120.8,114.4 82.1,86.1 
		81.5,85.7 81.2,86.1 80.8,86.6 	"/>
	<polygon fill="#231F20" points="120.1,115.4 61.2,148.7 59.8,149.5 60.1,150 60.3,149.4 61.7,149.8 120.6,116.5 121.2,116.2 
		121.5,116 121.2,115.5 120.9,115 	"/>
</g>
</svg>
