<?xml version="1.0" encoding="utf-8"?>
<!-- Generator: Adobe Illustrator 18.1.1, SVG Export Plug-In . SVG Version: 6.00 Build 0)  -->
<svg version="1.1" id="Layer_1" xmlns="http://www.w3.org/2000/svg" xmlns:xlink="http://www.w3.org/1999/xlink" x="0px" y="0px"
	 width="106px" height="182px" viewBox="0 0 106 182" enable-background="new 0 0 106 182" xml:space="preserve">
<polygon fill="#231F20" points="20.3,177.1 20.9,177.1 21.6,177.2 36,101.8 35.1,100.2 34.9,100 34.7,101.3 "/>
<polygon fill="#231F20" points="35.1,100.2 36,101.8 76.8,180.6 77.5,180.6 77.8,179.8 37,100.9 35.5,100.5 35.7,99.8 35.1,100.1 
	"/>
<polygon fill="#231F20" points="77.5,180.6 78,180.7 78.9,180.7 103.5,120 102.9,119.4 102.4,119.3 77.8,179.8 "/>
<polygon fill="#231F20" points="102.8,118 37.5,99.7 35.8,99.2 35.7,99.8 35.5,100.5 37,100.9 102.4,119.3 102.9,119.4 102.8,119.3 
	103.3,118.9 102.6,118.7 "/>
<polygon fill="#231F20" points="76.8,180.6 21.6,177.2 20.9,177.1 20.9,177.1 20.8,177.8 20.8,178.4 21.4,178.5 76.2,181.9 
	77.2,182 77.6,182 77.9,182 77.9,181.3 78,180.7 78,180.7 77.5,180.6 "/>
<polygon fill="#231F20" points="84.2,0.8 104.4,37.7 105.1,37.8 105.5,37.5 85.4,0.6 85.1,0 85.1,0.1 84.5,0.1 84.7,0.7 "/>
<polygon fill="#231F20" points="36.2,100.7 38.2,99 105.2,39.2 105.6,38.8 105.6,38.7 105.3,38.3 105.2,38.9 103.9,38.8 36,99.5 
	36.3,100.1 35.8,100.4 36.3,100.7 "/>
<polygon fill="#231F20" points="105.1,37.8 104.4,37.7 2.7,29.6 0.8,30.3 0.9,30.6 103.9,38.8 105.2,38.9 105.3,38.3 105.3,37.8 "/>
<polygon fill="#231F20" points="83.1,0.1 0.7,29.1 0.6,29.9 0.8,30.3 2.7,29.6 84.2,0.8 84.7,0.7 84.5,0.1 84.3,0.6 "/>
<polygon fill="#231F20" points="36,99.5 0.9,30.6 0.8,30.3 0.6,29.9 0.6,30 0,30 0.5,30.2 0,31.3 35,100 35.7,99.8 35.8,100.4 
	36.3,100.1 "/>
</svg>
