<?xml version="1.0" encoding="utf-8"?>
<!-- Generator: Adobe Illustrator 18.1.1, SVG Export Plug-In . SVG Version: 6.00 Build 0)  -->
<svg version="1.1" id="Layer_1" xmlns="http://www.w3.org/2000/svg" xmlns:xlink="http://www.w3.org/1999/xlink" x="0px" y="0px"
	 width="558px" height="675px" viewBox="0 0 558 675" enable-background="new 0 0 558 675" xml:space="preserve">
<g>
	<polygon fill="#231F20" points="397.1,458.7 341.1,421.1 340.5,419.8 341.6,419.7 397.9,457.6 397.5,458.1 398.1,458.5 
		397.5,458.2 	"/>
	<polygon fill="#231F20" points="373.7,496.4 373.3,497.1 372.4,497 339.2,420.3 338.9,419.7 338.8,419.4 339.5,419.1 339.5,419.8 
		340.5,419.8 341.1,421.1 	"/>
	<polygon fill="#231F20" points="262.4,478.4 261.8,478.8 261.9,478.1 263.5,478.3 372.4,497 373.3,497.1 373.1,497.4 371.1,498.2 
		263.2,479.7 	"/>
	<polygon fill="#231F20" points="262.5,478.9 261.8,478.8 262.4,478.4 263.2,479.7 293.9,531.1 292.8,532 262.1,480.6 	"/>
	<polygon fill="#231F20" points="294.6,532.3 328.5,589.1 328.1,589.8 327.2,589.7 293.5,533.3 	"/>
	<polygon fill="#231F20" points="328.5,589.1 372.2,499.3 373.4,498.8 373.7,499.3 329.8,589.6 328.5,589.8 328.1,589.8 	"/>
	<polygon fill="#231F20" points="327.2,591.2 234.1,583.9 233.9,583.3 234.9,582.5 327.2,589.7 328.1,589.8 328.5,589.8 
		328.4,589.8 328.5,590.5 328,590.1 	"/>
	<polygon fill="#231F20" points="260.7,480.2 261.1,478.6 261.8,478.8 262.5,478.9 262.1,480.6 234.4,581.1 233.3,582 232.8,581.4 	
		"/>
	<polygon fill="#231F20" points="190.4,517.6 189.9,517.1 190.5,516.7 190.9,517.3 232.8,581.4 233.3,582 232.8,582.4 231.8,582.4 
		189.8,518.2 	"/>
	<polygon fill="#231F20" points="232.8,582.4 233.3,582 234.4,581.1 292.8,532 293.9,531.1 294.7,530.4 295.2,530.9 295.5,531.6 
		295.6,531.5 294.6,532.3 293.5,533.3 234.9,582.5 233.9,583.3 233.8,582.9 233.1,583.1 233.1,582.4 	"/>
	<polygon fill="#231F20" points="189.4,516.6 189.9,517.1 190.4,517.6 189.8,518.2 111.7,586 110.4,586.1 110.3,585.4 188.7,517.2 	
		"/>
	<polygon fill="#231F20" points="111.7,586 231.8,582.4 232.8,582.4 233.1,582.4 233.1,583.1 232.6,582.6 231.5,583.9 112.2,587.5 
		110.4,586.4 110.4,586.1 	"/>
	<polygon fill="#231F20" points="108.9,585.4 99.6,470 100.7,468.6 100.1,468.1 100.8,468.1 100.9,469.4 110.3,585.4 110.4,586.1 
		110.4,586.4 110.1,586.2 	"/>
	<polygon fill="#231F20" points="374.5,497.9 375,497.1 446.7,492 447.9,492 448.1,492.6 447.9,493.4 375,498.5 	"/>
	<polygon fill="#231F20" points="449.1,494.3 430.4,570.1 429.6,570.5 429,569.8 447.9,493.4 448.1,492.6 448.1,492.8 448.8,492.6 
		448.2,493 	"/>
	<polygon fill="#231F20" points="373.4,498.8 373.9,498.6 373.6,497.9 374.2,498.3 374.5,497.9 375,498.5 429,569.8 429.6,570.5 
		429.1,570.7 428.1,570.9 373.7,499.3 	"/>
	<polygon fill="#231F20" points="526.4,489.9 486.3,543.9 485.7,543.7 485.2,543 525.2,489.1 526.1,487.9 526.7,488.3 526.7,488.3 
		526,488.6 	"/>
	<polygon fill="#231F20" points="429.1,570.7 429.6,570.5 430.4,570.1 484.2,544 484.5,544.4 484.5,545.4 430.5,571.6 429.9,570.9 
		429.4,571.4 429.1,570.7 	"/>
	<polygon fill="#231F20" points="484.5,544.4 484.2,544 449.1,494.3 448.2,493 448.8,492.6 449.4,492.2 449.7,492.6 450.1,493.2 
		485.2,543 485.7,543.7 485.5,543.6 485.2,544.2 484.5,544.2 	"/>
	<polygon fill="#231F20" points="189.8,632.2 231.5,583.9 232.6,582.6 233.1,583.1 232.4,583.3 232.8,584.5 191,633 190.3,632.5 
		189.9,633.1 190.3,632.5 	"/>
	<polygon fill="#231F20" points="109.3,587.4 109.7,586.8 110.1,586.2 110.1,586.2 110.4,586.4 112.2,587.5 189.8,632.2 
		190.3,632.5 189.9,633.1 189.4,632.6 188.7,633.3 187.3,632.4 109.9,587.8 	"/>
	<polygon fill="#231F20" points="191,633 260.6,674.2 260.8,675 259,674.9 190,634 190.4,633.7 189.9,633.1 190.3,632.5 	"/>
	<polygon fill="#231F20" points="232.8,584.5 232.4,583.3 233.1,583.1 233.8,582.9 233.9,583.3 234.1,583.9 262.1,674.2 261.5,675 
		260.8,675 260.6,674.2 	"/>
	<polygon fill="#231F20" points="262.1,674.2 327.2,591.2 328,590.1 328.5,590.5 328,591 328.5,591.7 263.8,674.4 261.7,675 
		261.5,675 	"/>
	<polygon fill="#231F20" points="484.5,544.4 484.5,544.2 485.2,544.2 485,544.9 485.9,545.3 483.1,627.9 482.4,628.4 481.7,627.6 
		484.5,545.4 	"/>
	<polygon fill="#231F20" points="295.5,531.6 295.2,530.9 294.9,530.3 371.1,498.2 373.1,497.4 373,497.5 373.6,497.9 373.9,498.6 
		373.4,498.8 372.2,499.3 295.6,531.5 	"/>
	<polygon fill="#231F20" points="482.4,628.4 483.1,627.9 551.4,572.7 552.1,573 552.1,573.9 483.6,629.3 482.6,628.8 482.3,629.4 
		481.9,628.9 	"/>
	<polygon fill="#231F20" points="552.1,573.9 552.1,573 552.5,573.2 552.8,572.5 553.5,572.5 553.5,572.6 553.6,573.8 553.7,576.3 
		558,655 558,667.2 557.2,666.8 	"/>
	<polygon fill="#231F20" points="556.9,668.2 555.6,667.6 482.4,630.3 482,630 482.3,629.4 482.6,628.8 483.6,629.3 557.2,666.8 
		558,667.2 558,668 557.5,667.5 	"/>
	<polygon fill="#231F20" points="557.9,669.2 557.4,668.3 558,668 558,669.5 	"/>
	<polygon fill="#231F20" points="373.1,497.4 373.3,497.1 373.7,496.4 397.1,458.7 397.5,458.2 398.1,458.5 398.7,458.9 
		398.7,458.9 398.3,459.5 375,497.1 374.5,497.9 374.2,498.3 373.6,497.9 373,497.5 	"/>
	<polygon fill="#231F20" points="485.9,545.3 485,544.9 485.2,544.2 485.5,543.6 485.7,543.7 486.3,543.9 551.6,571.3 553,571.9 
		552.8,572.5 552.5,573.2 552.1,573 551.4,572.7 	"/>
	<g>
		<polygon fill="#231F20" points="317.6,118.2 317.9,117.7 317.3,117.3 318.1,117.3 318.1,116.8 372.2,136.5 372.8,137.6 372.1,138 
					"/>
		<polygon fill="#231F20" points="318.1,116.8 318.1,117.3 317.3,117.3 317.5,116.6 316.6,116.4 316.6,34.2 317.1,33.8 318.1,35.5 
					"/>
		<polygon fill="#231F20" points="319.8,33.7 318.6,32.8 319.5,32.2 422.5,46.3 422.5,46.9 422,47.7 		"/>
		<polygon fill="#231F20" points="374.2,137.2 373.7,136.3 395.7,96.1 396.2,96.5 396.8,97 374.8,137.4 		"/>
		<polygon fill="#231F20" points="423.5,48 397.8,95.1 396.9,95.2 396.4,94.8 422,47.7 422.5,46.9 422.5,47.1 423.2,47.1 
			422.9,47.8 		"/>
		<polygon fill="#231F20" points="374.2,137.2 374,137.2 373.7,137.8 373.4,137.2 372.8,137.6 372.2,136.5 318.1,35.5 317.1,33.8 
			317.4,33.6 319.6,35.4 373.7,136.3 		"/>
		<polygon fill="#231F20" points="396.4,94.8 396.9,95.2 396.6,95.2 396.7,95.9 396.2,96.5 396.2,96.5 395.7,96.1 319.6,35.4 
			317.4,33.6 317.8,33.2 318.6,32.8 319.8,33.7 		"/>
		<polygon fill="#231F20" points="317.4,33.6 317.1,33.8 316.6,34.2 246.2,95.6 245.3,95.4 245.1,94.7 315.9,32.9 317.1,33.3 
			317.3,32.6 317.7,33.3 317.8,33.2 		"/>
		<polygon fill="#231F20" points="317.5,116.6 317.3,117.3 316.8,116.9 316.2,117.7 245.4,96.9 245.4,95.9 244.7,95.9 245.4,95.7 
			245.3,95.4 246.2,95.6 316.6,116.4 		"/>
		<polygon fill="#231F20" points="317.6,118.2 247.4,216.6 245.4,217.8 245.4,216.9 316.2,117.7 316.8,116.9 317.3,117.3 
			317.9,117.7 		"/>
		<polygon fill="#231F20" points="245.4,217.8 244.3,218.5 244.7,219.1 244.2,218.6 244,218.8 244,97.5 245.2,96.5 244.7,95.9 
			245.4,95.9 245.4,96.9 245.4,216.9 		"/>
		<polygon fill="#231F20" points="245.5,219.8 245.4,219 244.7,219.1 244.7,218.4 247.2,218.4 373,218.4 373,218.7 371.1,219.8 		
			"/>
		<polygon fill="#231F20" points="371.3,221.3 257.8,287.5 255.6,287.6 255.5,287.2 371.1,219.8 373,218.7 373,218.8 		"/>
		<polygon fill="#231F20" points="245.5,219.8 255.5,287.2 255.6,287.6 255,287.6 254.1,287.4 244.2,220.5 245.2,219.6 244.7,219.1 
			245.4,219 		"/>
		<polygon fill="#231F20" points="244.2,220.5 191.4,269.7 190.2,269.3 190,270 190.1,269.3 189.8,269.3 242.6,220.1 243.5,219.7 
			243.3,219.4 244,218.8 244.2,218.6 244.7,219.1 245.2,219.6 		"/>
		<polygon fill="#231F20" points="243.2,219.1 243,218.4 241.7,218.9 162.8,166.2 163,165.5 163.6,165 243.6,218.5 		"/>
		<polygon fill="#231F20" points="244,97.5 163.6,165 163,165.5 163.1,165.3 162.4,165.1 163.1,165.1 163.2,163.4 243.4,96.1 
			244.4,96.6 244.7,95.9 245.2,96.5 		"/>
		<polygon fill="#231F20" points="121.7,192.9 121.2,192.3 120.8,191.7 161,165.1 161.5,165.4 161.2,166.7 121.7,192.9 		"/>
		<polygon fill="#231F20" points="135.6,261.6 135.8,261 241.7,218.9 243,218.4 243.2,219.1 243.3,219.4 243.5,219.7 242.6,220.1 
			137.5,261.9 		"/>
		<polygon fill="#231F20" points="189.3,270.6 135.7,263.1 135.4,262.2 135.6,261.6 137.5,261.9 189.8,269.3 190.1,269.3 190,270 
			189.3,270 		"/>
		<polygon fill="#231F20" points="255,288.3 254.4,287.9 253.8,288.8 190.6,270.9 190.7,270.1 190,270 190.2,269.3 191.4,269.7 
			254.1,287.4 255,287.6 254.9,287.6 		"/>
		<polygon fill="#231F20" points="373.7,220.4 374.3,219.5 373.7,219.1 374.3,218.7 375.4,220.4 411.6,280.8 411.2,281 410.1,281 		
			"/>
		<polygon fill="#231F20" points="255.5,287.8 255,288.3 254.9,287.6 255,287.6 255.6,287.6 257.8,287.5 326.3,284.6 326.1,284.9 
			326.7,285.3 326,285.3 326,286 256.6,289 		"/>
		<polygon fill="#231F20" points="409.5,282.5 327.4,286 327.4,285.5 328.1,284.5 410.1,281 411.2,281 411,281 411.3,281.7 
			410.8,281.2 		"/>
		<polygon fill="#231F20" points="255.9,290.3 255.7,288.3 255,288.3 255.5,287.8 256.6,289 327.9,359.9 327.9,361.2 327.4,361.4 		
			"/>
		<polygon fill="#231F20" points="253.8,288.8 254.4,287.9 255,288.3 254.3,288.4 254.5,290.2 178.4,396.9 177.6,397 177.8,395.3 		
			"/>
		<polygon fill="#231F20" points="254.3,288.4 255,288.3 255.7,288.3 255.9,290.3 267,383 266.2,383.3 265.6,383.4 254.5,290.2 		
			"/>
		<polygon fill="#231F20" points="409.5,282.5 410.8,281.2 411.3,281.7 411.3,281.7 410.6,281.6 410.5,283.5 330.1,361.2 
			329.4,361.1 329.3,360 		"/>
		<polygon fill="#231F20" points="410.5,283.5 410.6,281.6 411.3,281.7 410.8,282.2 411.9,283.3 403.2,374.9 402.2,375.8 
			401.7,375.7 		"/>
		<polygon fill="#231F20" points="410.8,282.2 411.3,281.7 411.9,281.2 412.5,281.9 456.2,327.8 456,328.9 455.6,329.2 411.9,283.3 
					"/>
		<polygon fill="#231F20" points="455.2,331.5 403.3,376.7 402.9,376.1 402.4,376.6 402.5,375.9 402.2,375.8 403.2,374.9 
			455.6,329.2 456,328.9 456.2,328.7 456.6,329.3 456,329 		"/>
		<polygon fill="#231F20" points="400.6,376.9 329.6,362.6 329.4,361.6 329.4,361.1 330.1,361.2 401.7,375.7 402.2,375.8 
			402.5,375.9 402.4,376.6 402,376 		"/>
		<polygon fill="#231F20" points="266.2,383.3 267,383 327.4,361.4 327.9,361.2 328,361.7 328.7,361.7 328,361.8 328.1,362.6 
			268.2,384.1 266.7,383.4 266.4,384 266.3,383.3 		"/>
		<polygon fill="#231F20" points="265.6,384.8 178.4,398.3 177.6,397.6 177.6,397 178.4,396.9 265.6,383.4 266.2,383.3 266.3,383.3 
			266.4,384 265.7,384 		"/>
		<polygon fill="#231F20" points="190.6,270.9 177.8,395.3 177.6,397 177.6,397.6 177.5,397.5 176.5,394.3 189.3,270.6 189.3,270 
			190,270 190.7,270.1 		"/>
		<polygon fill="#231F20" points="135.4,262.2 135.7,263.1 176.5,394.3 177.5,397.5 177.3,397.3 176.8,397.8 177.3,397.3 175.5,396 
			134.4,263.5 135.2,262.7 134.7,262.2 135.4,262.4 		"/>
		<polygon fill="#231F20" points="135.8,261 135.6,261.6 135.4,262.2 135.4,262.4 134.7,262.2 134.9,261.5 134.2,261.3 161.2,166.7 
			161.5,165.4 162,165.7 162.4,165.1 163.1,165.3 163,165.5 162.8,166.2 		"/>
		<polygon fill="#231F20" points="328.7,361.7 328,361.7 327.9,361.2 327.9,359.9 326,286 326,285.3 326.7,285.3 327.2,285.7 
			327.4,285.5 327.4,286 329.3,360 329.4,361.1 329.4,361.6 329.4,361.5 		"/>
		<polygon fill="#231F20" points="177.3,397.3 176.8,397.8 176.8,397.1 174.9,397.3 73.6,324.3 73.4,322.9 73.7,322.6 175.5,396 		
			"/>
		<polygon fill="#231F20" points="178.4,398.3 261.3,477.2 261.3,478.3 260.7,478.6 177.8,399.7 177.6,397.8 176.8,397.8 
			177.3,397.3 177.5,397.5 177.6,397.6 		"/>
		<polygon fill="#231F20" points="177.8,399.7 190.6,516 190,516.3 189.2,515.8 176.3,399.3 177.3,398.4 176.8,397.8 177.6,397.8 		
			"/>
		<polygon fill="#231F20" points="176.3,399.3 101.5,468 100.9,467.7 100.7,466.7 174.8,398.8 176.9,398.6 176.8,397.8 177.3,398.4 
					"/>
		<polygon fill="#231F20" points="260.7,478.6 261.3,478.3 261.6,478.2 261.5,478.2 262,478.8 261.3,478.6 260.8,480.2 191,517.3 
			190.6,516.7 190,517.1 190.4,516.5 190,516.3 190.6,516 		"/>
		<polygon fill="#231F20" points="100.9,467.7 101.5,468 189.2,515.8 190,516.3 190.4,516.5 190,517.1 189.6,516.6 188.8,517.2 
			101.1,469.4 101,468.1 100.3,468.1 100.9,468 		"/>
		<polygon fill="#231F20" points="89.3,406.8 100.7,466.7 100.9,467.7 100.9,468 100.3,468.1 100.7,467.6 99.2,466.4 87.9,406.9 
			88.5,406.9 88.5,406.2 88.5,406.9 		"/>
		<polygon fill="#231F20" points="89,405.4 88.4,405.5 87.6,405.5 72.3,324.9 73.2,323.1 73.4,322.9 73.6,324.3 		"/>
		<polygon fill="#231F20" points="73.1,321.2 133.3,262.6 134.5,262.9 134.7,262.2 135.2,262.7 134.4,263.5 73.7,322.6 73.4,322.9 
			73.2,323.1 73.2,323 72.6,322.7 73.3,322.6 		"/>
		<polygon fill="#231F20" points="174.9,397.3 176.8,397.1 176.8,397.8 176.9,398.6 174.8,398.8 89.3,406.8 88.5,406.9 88.5,406.2 
			88.4,405.5 88.4,405.5 89,405.4 		"/>
		<polygon fill="#231F20" points="262.1,478.1 262,478.8 261.5,478.2 261.6,478.2 262.7,477.3 338.3,419.3 339.1,419.7 339.3,420.3 
			263.7,478.3 		"/>
		<polygon fill="#231F20" points="328.1,362.6 328,361.8 328.7,361.7 329.4,361.5 329.4,361.6 329.6,362.6 340.1,417.9 339.5,418.3 
			338.6,417.9 		"/>
		<polygon fill="#231F20" points="339.1,419.7 338.3,419.3 267,385.1 266.1,384.6 266.4,384 266.7,383.4 268.2,384.1 338.6,417.9 
			339.5,418.3 339.2,418.6 339.6,419.1 339,419.4 		"/>
		<polygon fill="#231F20" points="402.2,377.5 342.1,418.3 339.6,418.4 339.6,419.1 339.2,418.6 339.5,418.3 340.1,417.9 
			400.6,376.9 402,376 402.4,376.6 401.8,377 		"/>
		<polygon fill="#231F20" points="398.4,459.5 398.8,458.9 399.2,458.3 447.8,491 448,492 446.8,492 		"/>
		<polygon fill="#231F20" points="448.2,492.6 448,492 447.8,491 429.2,415.5 429.9,414.5 430.4,414.4 449.2,490.9 448.4,492.2 
			448.9,492.6 448.2,492.8 		"/>
		<polygon fill="#231F20" points="429.9,414.5 430.1,414.2 429.5,413.8 430.2,414 430.5,413 507,405.6 507.4,406.2 506.8,407 
			430.4,414.4 		"/>
		<polygon fill="#231F20" points="507,405.6 456.9,330.9 457.2,329.8 457.7,329.6 508.1,404.7 507.6,405.8 507.4,406.2 		"/>
		<polygon fill="#231F20" points="507.9,407.9 508.5,407.1 509.2,407.4 527.2,486.8 526.5,487.7 526,487.7 		"/>
		<polygon fill="#231F20" points="525.4,489.1 450.3,493.2 449.8,492.6 450.3,491.8 526,487.7 526.5,487.7 526.3,487.9 526.8,488.3 
			526.3,487.9 		"/>
		<polygon fill="#231F20" points="450.3,491.8 449.8,492.6 449.5,492.2 448.9,492.6 448.4,492.2 449.2,490.9 506.8,407 507.4,406.2 
			507.6,405.8 507.6,405.9 508.2,406.2 507.9,406.8 508.5,407.1 507.9,407.9 		"/>
		<polygon fill="#231F20" points="430.2,414 429.5,413.8 430.1,413.4 429.3,412.3 455.2,331.5 456,329 456.6,329.3 456.9,329.9 
			457.2,329.8 456.9,330.9 430.5,413 		"/>
		<polygon fill="#231F20" points="428.2,413.2 402.2,377.5 401.8,377 402.4,376.6 402.9,376.1 403.3,376.7 429.3,412.3 430.1,413.4 
			429.5,413.8 429.5,413.1 		"/>
		<polygon fill="#231F20" points="428.1,414.6 341.7,419.7 340.7,419.8 339.6,419.8 339.6,419.1 339.6,418.4 342.1,418.3 
			428.2,413.2 429.5,413.1 429.5,413.8 429,413.4 		"/>
		<polygon fill="#231F20" points="61,241.4 61.7,241.6 73.1,321.2 73.3,322.6 72.6,322.7 72.9,322.1 71.7,321.5 60.3,241.7 		"/>
		<polygon fill="#231F20" points="121.2,192.3 121.7,192.9 121.7,192.9 62.4,240.3 61.8,240.2 62.3,238.6 120.8,191.7 		"/>
		<polygon fill="#231F20" points="61.8,240.2 62.4,240.3 134.2,261.3 134.9,261.5 134.7,262.2 134.5,262.9 133.3,262.6 61.7,241.6 
			61,241.4 61.2,241.3 60.9,240.6 61.6,240.9 		"/>
		<polygon fill="#231F20" points="161.5,165.4 161,165.1 98.2,131.3 98.4,130.6 99,130.1 161.8,163.9 161.7,165 162.4,165.1 
			162,165.7 		"/>
		<polygon fill="#231F20" points="62.3,238.6 61.8,240.2 61.6,240.9 60.9,240.6 61.1,240 60.4,239.8 60.9,238.3 96.6,131.5 
			97,130.5 97.3,130.8 97.8,130.2 98.3,130.8 98.4,130.6 98.2,131.3 		"/>
		<polygon fill="#231F20" points="73.2,323.1 72.3,324.9 28.6,409.2 27.8,409.3 27.5,408.3 71.2,323.8 72.8,323.4 72.6,322.7 
			73.2,323 		"/>
		<polygon fill="#231F20" points="100.7,467.6 100.3,468.1 100.2,467.4 98.4,467.5 28.1,411.5 28.1,410.7 29.3,410.6 99.2,466.4 		
			"/>
		<polygon fill="#231F20" points="27.8,409.3 27.3,409.3 26.3,409.3 0,344.4 0.6,343.7 1.2,343.6 27.5,408.3 		"/>
		<polygon fill="#231F20" points="0.7,342.2 70.6,322.5 72.4,322 72.6,322.7 72.8,323.4 71.2,323.8 1.2,343.6 0.6,343.7 0.8,343.6 
			0.3,343.1 0.9,342.9 		"/>
		<polygon fill="#231F20" points="398.8,458.9 398.8,458.9 398.2,458.5 397.7,458.1 398.1,457.6 428.1,414.6 429,413.4 429.5,413.8 
			430.1,414.2 429.9,414.5 429.2,415.5 399.2,458.3 		"/>
		<polygon fill="#231F20" points="243.4,96.1 172.1,65.3 172.2,64.5 172.6,64 243.6,94.7 244,96.1 244.7,95.9 244.4,96.6 		"/>
		<polygon fill="#231F20" points="99,130.1 98.4,130.6 98.3,130.8 97.8,130.2 98.5,130.2 98.4,128.7 170.3,64.5 170.8,64.7 
			170.7,66 		"/>
		<polygon fill="#231F20" points="163.2,163.4 163.1,165.1 162.4,165.1 161.7,165 161.8,163.9 170.7,66 170.8,64.7 171.2,64.9 
			171.5,64.3 172.1,64.7 172.2,64.5 172.1,65.3 		"/>
		<polygon fill="#231F20" points="28.6,409.2 87.6,405.5 88.4,405.5 88.4,405.5 88.5,406.2 88.5,406.9 87.9,406.9 29.3,410.6 
			28.1,410.7 27.7,410.7 27.4,410.7 27.4,410 27.3,409.3 27.3,409.3 27.8,409.3 		"/>
		<polygon fill="#231F20" points="172.6,64 172.2,64.5 172.1,64.7 171.5,64.3 170.9,63.9 171.3,63.4 213.9,1.7 214.9,1.5 215.2,2.3 
					"/>
		<polygon fill="#231F20" points="244.7,95.9 244,96.1 243.6,94.7 215.2,2.3 214.9,1.5 215.4,1.4 216.5,1.8 245.1,94.7 245.3,95.4 
			245.4,95.7 		"/>
		<polygon fill="#231F20" points="315.9,32.9 216.5,1.8 215.4,1.4 215.5,1.4 215.4,0.7 215.6,0 215.7,0 217,0.4 315.3,31.3 
			317,31.8 317.3,31.9 317,32 317.3,32.6 317.1,33.3 		"/>
		<polygon fill="#231F20" points="373.7,220.4 328.1,284.5 327.4,285.5 327.2,285.7 326.7,285.3 326.1,284.9 326.3,284.6 
			371.3,221.3 373,218.8 373.2,218.7 373.7,219.1 374.3,219.5 		"/>
	</g>
</g>
</svg>
