<?xml version="1.0" encoding="utf-8"?>
<!-- Generator: Adobe Illustrator 18.1.1, SVG Export Plug-In . SVG Version: 6.00 Build 0)  -->
<svg version="1.1" id="Layer_1" xmlns="http://www.w3.org/2000/svg" xmlns:xlink="http://www.w3.org/1999/xlink" x="0px" y="0px"
	 width="21px" height="21px" viewBox="0 0 21 21" enable-background="new 0 0 21 21" xml:space="preserve">
<g>
	<ellipse fill="#231F20" cx="10.5" cy="10.5" rx="2.1" ry="2.1"/>
	<g>
		<path fill="#231F20" d="M10.6,5.8c1.1,0,2.1,0.3,2.9,0.9h3.9H21V5.2C21,2.3,18.6,0,15.8,0H5.2C2.4,0,0,2.3,0,5.2v1.5h7.7
			C8.5,6.1,9.5,5.8,10.6,5.8z M14.9,3.2c0-0.3,0.3-0.6,0.6-0.6h1.8c0.3,0,0.6,0.3,0.6,0.6V5c0,0.3-0.3,0.6-0.6,0.6h-1.8
			c-0.3,0-0.6-0.3-0.6-0.6V3.2z"/>
		<path fill="#231F20" d="M15.6,10.7c0,2.7-2.2,5-5,5s-5-2.2-5-5c0-0.8,0.2-1.5,0.5-2.1H0v7.2C0,18.7,2.4,21,5.2,21h10.5
			c2.9,0,5.2-2.3,5.2-5.2V8.6h-5.9C15.4,9.3,15.6,10,15.6,10.7z"/>
	</g>
</g>
</svg>
