<?xml version="1.0" encoding="utf-8"?>
<!-- Generator: Adobe Illustrator 18.1.1, SVG Export Plug-In . SVG Version: 6.00 Build 0)  -->
<svg version="1.1" id="Layer_1" xmlns="http://www.w3.org/2000/svg" xmlns:xlink="http://www.w3.org/1999/xlink" x="0px" y="0px"
	 width="18px" height="18px" viewBox="0 0 18 18" enable-background="new 0 0 18 18" xml:space="preserve">
<g>
	<path fill="#878787" d="M4.1,2c0,1.1-0.8,2-2.1,2C0.8,3.9,0,3,0,2c0-1.1,0.8-2,2.1-2C3.3,0,4.1,0.8,4.1,2z M0.1,18V5.4h3.8V18H0.1z
		"/>
	<path fill="#878787" d="M6.3,9.4c0-1.6-0.1-2.9-0.1-4h3.3l0.2,1.7h0.1c0.5-0.8,1.7-2,3.8-2c2.5,0,4.4,1.7,4.4,5.4V18h-3.8v-7
		c0-1.6-0.6-2.7-1.9-2.7c-1.1,0-1.7,0.7-2,1.5c-0.1,0.3-0.1,0.6-0.1,1V18H6.3V9.4z"/>
</g>
</svg>
