<?xml version="1.0" encoding="utf-8"?>
<!-- Generator: Adobe Illustrator 18.1.1, SVG Export Plug-In . SVG Version: 6.00 Build 0)  -->
<svg version="1.1" id="Layer_1" xmlns="http://www.w3.org/2000/svg" xmlns:xlink="http://www.w3.org/1999/xlink" x="0px" y="0px"
	 width="25px" height="21px" viewBox="0 0 25 21" enable-background="new 0 0 25 21" xml:space="preserve">
<path fill="#231F20" d="M25,2.5c-0.9,0.4-1.9,0.7-2.9,0.8c1.1-0.7,1.9-1.7,2.3-2.9c-1,0.6-2.1,1-3.3,1.3c-0.9-1-2.3-1.7-3.7-1.7
	c-2.8,0-5.1,2.4-5.1,5.3c0,0.4,0,0.8,0.1,1.2C8,6.3,4.3,4.2,1.7,1C1.3,1.8,1,2.7,1,3.6C1,5.5,2,7.1,3.3,8C2.5,8,1.7,7.8,1,7.4
	c0,0,0,0,0,0.1c0,2.6,1.8,4.7,4.1,5.2c-0.4,0.1-0.9,0.2-1.4,0.2c-0.3,0-0.7,0-1-0.1c0.7,2.1,2.5,3.6,4.8,3.7c-1.8,1.4-4,2.3-6.4,2.3
	c-0.4,0-0.8,0-1.2-0.1C2.3,20.1,5,21,7.9,21c9.4,0,14.6-8.1,14.6-15.1c0-0.2,0-0.5,0-0.7C23.4,4.5,24.3,3.5,25,2.5z"/>
</svg>
