<?xml version="1.0" encoding="utf-8"?>
<!-- Generator: Adobe Illustrator 18.1.1, SVG Export Plug-In . SVG Version: 6.00 Build 0)  -->
<svg version="1.1" id="Layer_1" xmlns="http://www.w3.org/2000/svg" xmlns:xlink="http://www.w3.org/1999/xlink" x="0px" y="0px"
	 width="545px" height="417px" viewBox="0 0 545 417" enable-background="new 0 0 545 417" xml:space="preserve">
<g>
	<polygon fill="#231F20" points="218.6,107.4 218.4,107 218.9,106.6 218.2,106.6 218.2,106.2 169,124.1 168.5,125 169.1,125.4 	"/>
	<polygon fill="#231F20" points="218.7,106 218.9,106.6 219.4,106.2 219.9,107 284.3,88 284.3,87.2 284.9,87.2 284.3,87 284.4,86.7 
		283.6,86.9 219.5,105.7 	"/>
	<polygon fill="#231F20" points="218.6,107.4 282.5,196.8 284.3,197.9 284.3,197.1 219.9,107 219.4,106.2 218.9,106.6 218.4,107 	
		"/>
	<polygon fill="#231F20" points="284.3,197.9 285.3,198.5 284.9,199.1 285.3,198.6 285.6,198.8 285.6,88.6 284.5,87.7 284.9,87.2 
		284.3,87.2 284.3,88 284.3,197.1 	"/>
	<polygon fill="#231F20" points="168.3,126.4 282.7,198.4 284.9,198.4 284.9,199.1 285.3,198.5 284.3,197.9 282.5,196.8 
		169.1,125.4 168.5,125 168,124.7 167.6,125.3 168.3,125.3 	"/>
	<polygon fill="#231F20" points="284.2,199.7 284.3,199 284.9,199.1 284.9,198.4 282.7,198.4 168.3,198.4 168.3,198.7 170,199.7 	
		"/>
	<polygon fill="#231F20" points="169.9,201.1 273,261.3 275,261.3 275.1,261 170,199.7 168.3,198.7 168.3,198.9 	"/>
	<polygon fill="#231F20" points="285.6,88.6 358.7,149.9 359.2,150.4 359.1,150.2 359.8,150 359.1,150.1 359,148.5 286.1,87.4 
		285.2,87.8 284.9,87.2 284.5,87.7 	"/>
	<polygon fill="#231F20" points="167.8,198.5 167.6,199.1 168.1,198.7 168.3,198.9 168.3,198.7 168.3,198.4 168.3,126.4 
		168.3,125.3 167.6,125.3 167.8,125.9 167,126.2 167,198.1 	"/>
	<polygon fill="#231F20" points="167.4,198.5 167.6,199.1 167.8,198.5 167,198.1 68,159.3 66.9,159.7 67,160.2 165.8,199 	"/>
	<polygon fill="#231F20" points="166.1,200.3 167.1,198.7 167.6,199.1 167.4,198.5 165.8,199 78.3,229.7 78.3,230.1 79.5,230.6 	"/>
	<polygon fill="#231F20" points="167.7,200.2 167.1,199.4 167.6,199.1 167.1,198.7 166.1,200.3 133.2,255.1 133.6,255.3 
		134.5,255.4 	"/>
	<polygon fill="#231F20" points="275.1,261.6 275.6,262 275.6,261.4 275.5,261.4 275,261.3 273,261.3 210.7,258.6 210.9,258.9 
		210.4,259.2 211,259.2 211,259.9 274.1,262.6 	"/>
	<polygon fill="#231F20" points="135.1,256.7 209.7,259.8 209.8,259.4 209.1,258.5 134.5,255.4 133.6,255.3 133.7,255.4 133.4,256 
		133.9,255.5 	"/>
	<polygon fill="#231F20" points="274.7,263.8 274.9,261.9 275.6,262 275.1,261.6 274.1,262.6 209.3,327 209.2,328.2 209.8,328.4 	
		"/>
	<polygon fill="#231F20" points="135.1,256.7 133.9,255.5 133.4,256 133.4,256 134.1,255.9 134.2,257.6 207.3,328.2 208,328.1 
		208,327.1 	"/>
	<polygon fill="#231F20" points="134.2,257.6 134.1,255.9 133.4,256 133.9,256.4 132.9,257.4 140.8,340.6 141.8,341.5 142.2,341.4 	
		"/>
	<polygon fill="#231F20" points="133,255.5 133.4,256 133.4,256 133.7,255.4 133.6,255.3 133.2,255.1 79.5,230.6 78.3,230.1 
		78.4,230.4 78.7,231.7 132.3,256.2 	"/>
	<polygon fill="#231F20" points="133.9,256.4 133.4,256 133,255.5 132.3,256.2 92.6,297.9 92.9,298.8 93.2,299.1 132.9,257.4 	"/>
	<polygon fill="#231F20" points="92.9,298.8 92.6,297.9 78.7,231.7 78.4,230.4 78.4,230.4 77.8,230.5 78,231.1 77.3,231.5 
		91.4,298.2 92.5,298.6 92.3,299.2 92.7,298.7 	"/>
	<polygon fill="#231F20" points="93.6,301.2 140.7,342.3 141.1,341.8 141.6,342.2 141.5,341.5 141.8,341.5 140.8,340.6 93.2,299.1 
		92.9,298.8 92.7,298.7 92.3,299.2 92.9,299 	"/>
	<polygon fill="#231F20" points="143.2,342.5 207.8,329.4 207.9,328.5 208,328.1 207.3,328.2 142.2,341.4 141.8,341.5 141.5,341.5 
		141.6,342.2 141.9,341.6 	"/>
	<polygon fill="#231F20" points="265.4,348.3 264.7,348.1 209.8,328.4 209.2,328.2 209.2,328.6 208.6,328.6 209.2,328.7 
		209.1,329.5 263.5,349 264.9,348.3 265.2,348.9 265.3,348.3 	"/>
	<polygon fill="#231F20" points="78.4,230.4 78.3,230.1 78.3,229.7 67,160.2 66.9,159.7 66.6,159.8 65.8,161 77,230.2 77.5,230 
		77.8,230.5 78.4,230.4 	"/>
	<polygon fill="#231F20" points="208.6,328.6 209.2,328.6 209.2,328.2 209.3,327 211,259.9 211,259.2 210.4,259.2 209.9,259.6 
		209.8,259.4 209.7,259.8 208,327.1 208,328.1 207.9,328.5 208,328.5 	"/>
	<polygon fill="#231F20" points="209.1,329.5 209.2,328.7 208.6,328.6 208,328.5 207.9,328.5 207.8,329.4 198.2,379.8 198.7,380.1 
		199.5,379.7 	"/>
	<polygon fill="#231F20" points="199.1,381.3 199.9,381 264.6,349.9 265.5,349.5 265.2,348.9 264.9,348.3 263.5,349 199.5,379.7 
		198.7,380.1 199,380.3 198.6,380.9 199.2,381.1 	"/>
	<polygon fill="#231F20" points="141.7,343 196.3,380.1 198.7,380.2 198.6,380.9 199,380.3 198.7,380.1 198.2,379.8 143.2,342.5 
		141.9,341.6 141.6,342.2 142.1,342.5 	"/>
	<polygon fill="#231F20" points="146.2,416.8 197.2,382.6 197.7,381.4 196.7,381.4 145.5,415.8 145.9,416.3 145.3,416.6 
		145.9,416.3 	"/>
	<polygon fill="#231F20" points="116.5,376.6 116.4,376.4 116.9,376 116.3,376.2 116,375.3 46.5,368.5 46.1,369.1 46.7,369.8 
		116.1,376.6 	"/>
	<polygon fill="#231F20" points="46.5,368.5 92.1,300.6 91.7,299.7 91.3,299.5 45.5,367.7 45.9,368.8 46.1,369.1 	"/>
	<polygon fill="#231F20" points="116.3,376.2 116.9,376 116.4,375.6 117.1,374.6 93.6,301.2 92.9,299 92.3,299.2 92,299.8 
		91.7,299.7 92.1,300.6 116,375.3 	"/>
	<polygon fill="#231F20" points="118.1,375.4 141.7,343 142.1,342.5 141.6,342.2 141.1,341.8 140.7,342.3 117.1,374.6 116.4,375.6 
		116.9,376 116.9,375.4 	"/>
	<polygon fill="#231F20" points="118.2,376.7 196.7,381.4 197.7,381.4 198.6,381.5 198.6,380.9 198.7,380.2 196.3,380.1 
		118.1,375.4 116.9,375.4 116.9,376 117.4,375.6 	"/>
	<polygon fill="#231F20" points="452.4,217.9 453,217.7 475.5,144.3 474.9,143.7 474.4,143.5 452,216.6 	"/>
	<polygon fill="#231F20" points="474.8,142.2 419.7,118.2 419.2,118.6 419.5,119.5 474.4,143.5 474.9,143.7 474.8,143.6 
		475.2,143.1 474.6,143 	"/>
	<polygon fill="#231F20" points="360.5,150.3 361,150.1 418.1,119.3 417.9,118.7 417.3,118.2 360.3,149 360.4,149.9 359.8,150 
		360.1,150.6 	"/>
	<polygon fill="#231F20" points="450.7,216.8 451.2,218.2 451.4,218.9 452,218.7 451.8,218 452.4,217.9 452,216.6 419.5,119.5 
		419.2,118.6 418.9,118.8 418.5,118.3 418,118.8 417.9,118.7 418.1,119.3 	"/>
	<polygon fill="#231F20" points="530,196.4 453,217.7 452.4,217.9 451.8,218 452,218.7 452.2,219.3 453.8,218.8 530.5,197.6 
		531.3,197.4 531.1,197.3 531.3,196.7 530.9,197.2 	"/>
	<polygon fill="#231F20" points="474.9,143.7 475.5,144.3 530,196.4 530.9,197.2 531.3,196.7 530.7,196.6 530.9,195.4 476.3,143.3 
		475.5,143.7 475.2,143.1 474.8,143.6 	"/>
	<polygon fill="#231F20" points="530.7,196.6 531.3,196.7 530.9,196.2 532.2,195.3 545,114.2 544.4,112 544,112.2 530.9,195.4 	"/>
	<polygon fill="#231F20" points="495.4,55.3 495.2,56.5 543.8,110.9 544.1,110.7 543.6,108.8 495.6,55 	"/>
	<polygon fill="#231F20" points="419.1,118.4 418.5,118.3 418.9,118.8 419.2,118.6 419.7,118.2 493.8,56.8 494.1,55.5 493.6,55.3 
		419.2,116.9 	"/>
	<polygon fill="#231F20" points="474.8,142.2 474.6,143 475.2,143.1 474.9,142.5 476.1,142 495.2,56.5 495.4,55.3 495.4,55.4 
		494.8,55.1 494.5,55.7 494.1,55.5 493.8,56.8 	"/>
	<polygon fill="#231F20" points="476.1,142 474.9,142.5 475.2,143.1 475.5,143.7 476.3,143.3 544,112.2 544.4,112 544.2,111.2 
		544.8,111.1 544.2,111.2 544.1,110.7 543.8,110.9 	"/>
	<polygon fill="#231F20" points="144.8,417 144.8,417 145.3,416.6 145.9,416.3 145.5,415.8 118.2,376.7 117.4,375.6 116.9,376 
		116.4,376.4 116.5,376.6 117.2,377.5 144.4,416.5 	"/>
	<polygon fill="#231F20" points="286.1,87.4 350.9,59.4 350.8,58.7 350.5,58.2 285.9,86 285.5,87.4 284.9,87.2 285.2,87.8 	"/>
	<polygon fill="#231F20" points="417.3,118.2 417.9,118.7 418,118.8 418.5,118.3 417.8,118.3 417.9,117 352.6,58.6 352.1,58.8 
		352.2,60 	"/>
	<polygon fill="#231F20" points="359,148.5 359.1,150.1 359.8,150 360.4,149.9 360.3,149 352.2,60 352.1,58.8 351.7,59 351.4,58.4 
		350.9,58.8 350.8,58.7 350.9,59.4 	"/>
	<polygon fill="#231F20" points="91.7,299.7 92,299.8 92.3,299.2 92.5,298.6 91.4,298.2 1.7,265.7 0.8,266.1 1.2,266.9 91.3,299.5 	
		"/>
	<polygon fill="#231F20" points="77.3,231.5 78,231.1 77.8,230.5 77.5,230 77,230.2 1.7,264.3 0.7,265.8 0.8,266.1 1.7,265.7 	"/>
	<polygon fill="#231F20" points="1.7,264.3 65.8,161 66.6,159.8 66.7,159.6 66.7,159.6 66.2,159.2 66.3,159.8 64.7,160.4 0.2,264.2 
		0.6,265.5 0.7,265.8 	"/>
	<polygon fill="#231F20" points="0.6,265.5 0.2,264.2 0,263.5 0,265.8 0.6,265.5 	"/>
	<polygon fill="#231F20" points="0.4,268.3 44,367.5 44.5,368.7 45.1,368.5 45.4,369.1 46,368.8 45.9,368.8 45.5,367.7 1.2,266.9 
		0.8,266.1 0.7,265.8 0.6,265.5 0.6,265.5 0,265.8 0.6,265.8 	"/>
	<polygon fill="#231F20" points="0.6,265.8 0,265.8 0,272.3 0.4,268.3 	"/>
	<polygon fill="#231F20" points="417.8,118.3 418.5,118.3 419.1,118.4 419.2,116.9 425.2,22.5 424.6,22.2 423.9,22.6 417.9,117 	"/>
	<polygon fill="#231F20" points="352,58.1 351.4,58.4 351.7,59 352.1,58.8 352.6,58.6 423.9,22.6 424.6,22.2 424.4,22.1 422.6,21.8 
		351.6,57.6 	"/>
	<polygon fill="#231F20" points="350.5,58.2 350.8,58.7 350.9,58.8 351.4,58.4 352,58.1 351.6,57.6 313,1.6 312,1.4 311.8,2.1 	"/>
	<polygon fill="#231F20" points="284.9,87.2 285.5,87.4 285.9,86 311.8,2.1 312,1.4 311.6,1.3 310.6,1.6 284.6,86 284.4,86.7 
		284.3,87 	"/>
	<polygon fill="#231F20" points="311.6,1.3 312,1.4 313,1.6 422.6,21.8 424.4,22.1 424.5,22.1 424.6,21.5 424.5,20.9 424.6,20.8 
		424,20.7 422.8,20.5 313.3,0.3 311.7,0 311.5,0.6 311.4,1.3 	"/>
	<polygon fill="#231F20" points="167.7,200.2 209.1,258.5 209.8,259.4 209.9,259.6 210.4,259.2 210.9,258.9 210.7,258.6 
		169.9,201.1 168.3,198.9 168.1,198.7 167.6,199.1 167.1,199.4 	"/>
</g>
</svg>
