<?xml version="1.0" encoding="utf-8"?>
<!-- Generator: Adobe Illustrator 18.1.1, SVG Export Plug-In . SVG Version: 6.00 Build 0)  -->
<svg version="1.1" id="Layer_1" xmlns="http://www.w3.org/2000/svg" xmlns:xlink="http://www.w3.org/1999/xlink" x="0px" y="0px"
	 width="79px" height="104px" viewBox="0 0 79 104" enable-background="new 0 0 79 104" xml:space="preserve">
<g>
	<polygon fill="#231F20" points="1,84.4 1.3,84 0.7,83.6 1.4,83.6 1.4,83.1 54.7,102.5 55.3,103.6 54.6,104 	"/>
	<polygon fill="#231F20" points="1.4,83.1 1.4,83.6 0.7,83.6 0.9,82.9 0,82.6 0,1.4 0.5,1 1.4,2.7 	"/>
	<polygon fill="#231F20" points="56.7,103.3 56.2,102.4 77.8,62.6 78.3,63 78.9,63.5 57.2,103.4 	"/>
	<polygon fill="#231F20" points="56.7,103.3 56.4,103.2 56.2,103.8 55.8,103.2 55.3,103.6 54.7,102.5 1.4,2.7 0.5,1 0.7,0.8 
		2.9,2.6 56.2,102.4 	"/>
	<polygon fill="#231F20" points="78.5,61.3 79,61.7 78.7,61.7 78.8,62.4 78.3,62.9 78.3,63 77.8,62.6 2.9,2.6 0.7,0.8 1.1,0.5 
		1.9,0 3.1,0.9 	"/>
</g>
</svg>
