<?xml version="1.0" encoding="utf-8"?>
<!-- Generator: Adobe Illustrator 18.1.1, SVG Export Plug-In . SVG Version: 6.00 Build 0)  -->
<svg version="1.1" id="Layer_1" xmlns="http://www.w3.org/2000/svg" xmlns:xlink="http://www.w3.org/1999/xlink" x="0px" y="0px"
	 width="122px" height="130px" viewBox="0 0 122 130" enable-background="new 0 0 122 130" xml:space="preserve">
<g>
	<polygon fill="#231F20" points="1.1,76.5 64.4,129.5 64.9,129.8 64.8,129.7 65.4,129.5 64.8,129.6 64.7,128.2 1.6,75.4 0.8,75.8 
		0.5,75.3 0.2,75.7 	"/>
	<polygon fill="#231F20" points="66,129.8 66.4,129.6 115.9,103 115.7,102.5 115.2,102.1 65.8,128.6 65.9,129.5 65.4,129.5 
		65.6,130 	"/>
	<polygon fill="#231F20" points="1.6,75.4 57.7,51.3 57.6,50.6 57.3,50.2 1.4,74.3 1.1,75.4 0.5,75.3 0.8,75.8 	"/>
	<polygon fill="#231F20" points="115.2,102.1 115.7,102.5 115.8,102.6 116.2,102.2 115.6,102.1 115.7,101 59.1,50.6 58.7,50.8 
		58.8,51.8 	"/>
	<polygon fill="#231F20" points="64.7,128.2 64.8,129.6 65.4,129.5 65.9,129.5 65.8,128.6 58.8,51.8 58.7,50.8 58.4,50.9 58.1,50.5 
		57.7,50.8 57.6,50.6 57.7,51.3 	"/>
	<polygon fill="#231F20" points="115.6,102.1 116.2,102.2 116.7,102.2 116.8,100.9 122,19.4 121.5,19.2 120.9,19.5 115.7,101 	"/>
	<polygon fill="#231F20" points="58.6,50.1 58.1,50.5 58.4,50.9 58.7,50.8 59.1,50.6 120.9,19.5 121.5,19.2 121.3,19.1 119.8,18.8 
		58.3,49.7 	"/>
	<polygon fill="#231F20" points="57.3,50.2 57.6,50.6 57.7,50.8 58.1,50.5 58.6,50.1 58.3,49.7 24.8,1.3 24,1.2 23.8,1.8 	"/>
	<polygon fill="#231F20" points="0.5,75.3 1.1,75.4 1.4,74.3 23.8,1.8 24,1.2 23.6,1.1 22.7,1.4 0.3,74.3 0.1,74.8 0,75.1 	"/>
	<polygon fill="#231F20" points="23.6,1.1 24,1.2 24.8,1.3 119.8,18.8 121.3,19.1 121.4,19.1 121.5,18.6 121.4,18 121.5,18 
		121,17.9 119.9,17.7 25.1,0.3 23.7,0 23.6,0.5 23.5,1.1 	"/>
</g>
</svg>
