<?xml version="1.0" encoding="utf-8"?>
<!-- Generator: Adobe Illustrator 18.1.1, SVG Export Plug-In . SVG Version: 6.00 Build 0)  -->
<svg version="1.1" id="Layer_1" xmlns="http://www.w3.org/2000/svg" xmlns:xlink="http://www.w3.org/1999/xlink" x="0px" y="0px"
	 width="340px" height="451px" viewBox="0 0 340 451" enable-background="new 0 0 340 451" xml:space="preserve">
<g>
	<polygon fill="#231F20" points="162.6,82.7 162.3,82.3 162.9,81.9 162.2,81.9 162.2,81.4 109.8,100.5 109.2,101.6 109.9,102 	"/>
	<polygon fill="#231F20" points="162.2,81.4 162.2,81.9 162.9,81.9 162.7,81.3 163.6,81 163.6,1.4 163.1,1 162.2,2.6 	"/>
	<polygon fill="#231F20" points="107.9,101.2 108.3,100.4 87.1,61.3 86.6,61.7 86,62.2 107.3,101.4 	"/>
	<polygon fill="#231F20" points="107.9,101.2 108.1,101.1 108.3,101.8 108.7,101.2 109.2,101.6 109.8,100.5 162.2,2.6 163.1,1 
		162.9,0.8 160.7,2.5 108.3,100.4 	"/>
	<polygon fill="#231F20" points="86.4,60.1 86,60.5 86.2,60.5 86.2,61.2 86.6,61.7 86.6,61.7 87.1,61.3 160.7,2.5 162.9,0.8 
		162.5,0.5 161.7,0 160.5,0.9 	"/>
	<polygon fill="#231F20" points="162.6,82.7 230.6,178.1 232.4,179.3 232.4,178.4 164,82.3 163.4,81.5 162.9,81.9 162.3,82.3 	"/>
	<polygon fill="#231F20" points="232.4,179.3 233.5,179.9 233.1,180.5 233.6,180 233.8,180.2 233.8,62.7 232.7,61.7 233.1,61.2 
		232.4,61.2 232.4,62.1 232.4,178.4 	"/>
	<polygon fill="#231F20" points="109,103 230.8,179.8 233.1,179.8 233.1,180.5 233.5,179.9 232.4,179.3 230.6,178.1 109.9,102 
		109.2,101.6 108.7,101.2 108.3,101.8 109,101.8 	"/>
	<polygon fill="#231F20" points="232.3,181.2 232.5,180.4 233.1,180.5 233.1,179.8 230.8,179.8 109,179.8 109,180.1 110.9,181.2 	
		"/>
	<polygon fill="#231F20" points="110.7,182.7 220.5,246.8 222.6,246.9 222.7,246.5 110.9,181.2 109,180.1 109,180.3 	"/>
	<polygon fill="#231F20" points="232.3,181.2 222.7,246.5 222.6,246.9 223.1,246.9 224.1,246.7 233.6,181.9 232.7,181 233.1,180.5 
		232.5,180.4 	"/>
	<polygon fill="#231F20" points="233.6,181.9 284.7,229.5 285.8,229.2 286,229.9 285.9,229.2 286.3,229.1 235.2,181.5 234.3,181.1 
		234.5,180.8 233.8,180.2 233.6,180 233.1,180.5 232.7,181 	"/>
	<polygon fill="#231F20" points="234.6,180.5 234.8,179.9 236,180.3 312.4,129.3 312.2,128.6 311.6,128.1 234.2,179.9 	"/>
	<polygon fill="#231F20" points="233.8,62.7 311.6,128.1 312.2,128.6 312.1,128.4 312.8,128.2 312.1,128.2 311.9,126.6 234.4,61.4 
		233.4,61.8 233.1,61.2 232.7,61.7 	"/>
	<polygon fill="#231F20" points="338.7,221.7 338.5,221.1 236,180.3 234.8,179.9 234.6,180.5 234.5,180.8 234.3,181.1 235.2,181.5 
		336.9,222 	"/>
	<polygon fill="#231F20" points="286.8,230.4 338.6,223.1 338.8,222.3 338.7,221.7 336.9,222 286.3,229.1 285.9,229.2 286,229.9 
		286.7,229.8 	"/>
	<polygon fill="#231F20" points="223.2,247.6 223.8,247.2 224.3,248 285.4,230.7 285.3,229.9 286,229.9 285.8,229.2 284.7,229.5 
		224.1,246.7 223.1,246.9 223.2,246.9 	"/>
	<polygon fill="#231F20" points="108.6,179.9 108.3,180.5 108.9,180.1 109,180.3 109,180.1 109,179.8 109,103 109,101.8 
		108.3,101.8 108.6,102.4 107.6,102.8 107.6,179.5 	"/>
	<polygon fill="#231F20" points="108.1,179.9 108.3,180.5 108.6,179.9 107.6,179.5 2.4,138.1 1.2,138.5 1.3,139.1 106.4,180.5 	"/>
	<polygon fill="#231F20" points="106.8,181.8 107.7,180.1 108.3,180.5 108.1,179.9 106.4,180.5 13.3,213.1 13.3,213.6 14.6,214.1 	
		"/>
	<polygon fill="#231F20" points="108.4,181.8 107.8,180.9 108.3,180.5 107.7,180.1 106.8,181.8 71.7,240.3 72.1,240.5 73.2,240.5 	
		"/>
	<polygon fill="#231F20" points="222.7,247.1 223.2,247.6 223.2,246.9 223.1,246.9 222.6,246.9 220.5,246.8 154.2,244 154.4,244.2 
		153.9,244.6 154.5,244.7 154.5,245.4 221.6,248.2 	"/>
	<polygon fill="#231F20" points="73.7,241.9 153.2,245.3 153.2,244.9 152.5,243.9 73.2,240.5 72.1,240.5 72.3,240.5 72,241.1 
		72.4,240.7 	"/>
	<polygon fill="#231F20" points="222.3,249.5 222.5,247.5 223.2,247.6 222.7,247.1 221.6,248.2 152.7,316.9 152.6,318.1 
		153.2,318.3 	"/>
	<polygon fill="#231F20" points="73.7,241.9 72.4,240.7 72,241.1 72,241.1 72.7,241.1 72.8,242.9 150.5,318.2 151.3,318.1 
		151.3,317 	"/>
	<polygon fill="#231F20" points="71.5,240.7 72,241.1 72,241.1 72.3,240.5 72.1,240.5 71.7,240.3 14.6,214.1 13.3,213.6 13.4,213.9 
		13.7,215.2 70.8,241.4 	"/>
	<polygon fill="#231F20" points="82.4,333.4 151.1,319.5 151.2,318.5 151.3,318.1 150.5,318.2 81.3,332.2 80.8,332.3 80.5,332.4 
		80.6,333.1 81,332.5 	"/>
	<polygon fill="#231F20" points="212.3,339.6 211.6,339.3 153.2,318.3 152.6,318.1 152.6,318.6 151.9,318.6 152.6,318.8 
		152.5,319.5 210.4,340.4 211.9,339.7 212.2,340.3 212.3,339.6 	"/>
	<polygon fill="#231F20" points="338.5,221.1 338.7,221.7 338.8,222.3 338.9,222.5 339.5,222.3 339.3,221.6 340,221.4 313.9,129.8 
		313.6,128.5 313.1,128.8 312.8,128.2 312.1,128.4 312.2,128.6 312.4,129.3 	"/>
	<polygon fill="#231F20" points="13.4,213.9 13.3,213.6 13.3,213.1 1.3,139.1 1.2,138.5 0.8,138.6 0,139.9 12,213.6 12.4,213.4 
		12.7,214.1 13.4,213.9 	"/>
	<polygon fill="#231F20" points="2.4,138.1 107.6,102.8 108.6,102.4 108.3,101.8 108.1,101.1 107.9,101.2 107.3,101.4 3.3,136.3 
		0.9,138.5 0.8,138.6 1.2,138.5 	"/>
	<polygon fill="#231F20" points="0.9,138.5 3.3,136.3 86,62.2 86.6,61.7 86.6,61.7 86.2,61.2 86.1,61.9 84.5,61.8 0.6,136.9 
		1,137.7 0.4,138 1,138.4 	"/>
	<polygon fill="#231F20" points="151.9,318.6 152.6,318.6 152.6,318.1 152.7,316.9 154.5,245.4 154.5,244.7 153.9,244.6 153.3,245 
		153.2,244.9 153.2,245.3 151.3,317 151.3,318.1 151.2,318.5 151.3,318.5 	"/>
	<polygon fill="#231F20" points="216.8,431.5 217.1,431.6 217.1,430.5 212.9,341.1 212.9,340.2 212.2,340.3 212.5,340.9 
		211.5,341.3 215.7,430.6 	"/>
	<polygon fill="#231F20" points="216.3,431.4 216.5,432.1 216.9,431.5 216.8,431.5 215.7,430.6 142.7,374.5 141.9,374.8 
		141.6,375.4 214.8,431.7 	"/>
	<polygon fill="#231F20" points="152.5,319.5 152.6,318.8 151.9,318.6 151.3,318.5 151.2,318.5 151.1,319.5 140.9,373.2 
		141.4,373.5 142.3,373.1 	"/>
	<polygon fill="#231F20" points="141.9,374.8 142.7,374.5 211.5,341.3 212.5,340.9 212.2,340.3 211.9,339.7 210.4,340.4 
		142.3,373.1 141.4,373.5 141.7,373.7 141.3,374.3 142,374.6 	"/>
	<polygon fill="#231F20" points="80.8,334 138.9,373.5 141.4,373.6 141.3,374.3 141.7,373.7 141.4,373.5 140.9,373.2 82.4,333.4 
		81,332.5 80.6,333.1 81.2,333.5 	"/>
	<polygon fill="#231F20" points="85.6,412.7 139.8,376.2 140.3,374.9 139.3,374.9 84.8,411.5 85.2,412.1 84.6,412.5 85.2,412.1 	"/>
	<polygon fill="#231F20" points="108.2,449.2 108.7,449.9 109.5,449.7 141.6,375.4 141.9,374.8 142,374.6 141.3,374.3 141.3,375 
		140.3,374.9 139.8,376.2 	"/>
	<polygon fill="#231F20" points="215.9,431.7 216.5,432.1 216.3,431.4 214.8,431.7 109.5,449.7 108.7,449.9 108.8,450.1 
		110.8,450.9 215.1,433 	"/>
	<polygon fill="#231F20" points="55.7,368.5 80.8,334 81.2,333.5 80.6,333.1 80.1,332.7 79.7,333.2 54.6,367.7 53.8,368.8 
		54.4,369.2 54.4,368.5 	"/>
	<polygon fill="#231F20" points="55.7,369.9 139.3,374.9 140.3,374.9 141.3,375 141.3,374.3 141.4,373.6 138.9,373.5 55.7,368.5 
		54.4,368.5 54.4,369.2 54.9,368.8 	"/>
	<polygon fill="#231F20" points="84.1,412.9 84.1,412.8 84.6,412.5 85.2,412.1 84.8,411.5 55.7,369.9 54.9,368.8 54.4,369.2 
		53.8,369.6 54,369.8 54.7,370.8 83.7,412.3 	"/>
	<polygon fill="#231F20" points="108.4,181.8 152.5,243.9 153.2,244.9 153.3,245 153.9,244.6 154.4,244.2 154.2,244 110.7,182.7 
		109,180.3 108.9,180.1 108.3,180.5 107.8,180.9 	"/>
	<polygon fill="#231F20" points="108.8,450.1 108.7,449.9 108.2,449.2 85.6,412.7 85.2,412.1 84.6,412.5 84.1,412.8 84.1,412.9 
		84.4,413.4 107,449.9 107.5,450.6 107.8,451 108.3,450.6 108.9,450.3 	"/>
</g>
</svg>
