<?xml version="1.0" encoding="utf-8"?>
<!-- Generator: Adobe Illustrator 18.1.1, SVG Export Plug-In . SVG Version: 6.00 Build 0)  -->
<svg version="1.1" id="Layer_1" xmlns="http://www.w3.org/2000/svg" xmlns:xlink="http://www.w3.org/1999/xlink" x="0px" y="0px"
	 width="134px" height="165px" viewBox="0 0 134 165" enable-background="new 0 0 134 165" xml:space="preserve">
<g>
	<polygon fill="#231F20" points="69.6,75.3 69.4,75 69.9,74.6 69.2,74.6 69.2,74.2 21.6,91.6 21.1,92.5 21.7,92.9 	"/>
	<polygon fill="#231F20" points="69.2,74.2 69.2,74.6 69.9,74.6 69.7,74 70.5,73.8 70.5,1.3 70,0.9 69.2,2.4 	"/>
	<polygon fill="#231F20" points="19.9,92.2 20.3,91.4 1,55.9 0.6,56.2 0.1,56.7 19.4,92.3 	"/>
	<polygon fill="#231F20" points="19.9,92.2 20.1,92.1 20.3,92.7 20.7,92.2 21.1,92.5 21.6,91.6 69.2,2.4 70,0.9 69.8,0.7 67.9,2.3 
		20.3,91.4 	"/>
	<polygon fill="#231F20" points="0.4,54.7 0,55.1 0.2,55.1 0.2,55.7 0.6,56.2 0.6,56.2 1,55.9 67.9,2.3 69.8,0.7 69.5,0.4 68.7,0 
		67.7,0.8 	"/>
	<polygon fill="#231F20" points="69.6,75.3 131.3,162.2 133,163.2 133,162.4 70.9,74.9 70.4,74.2 69.9,74.6 69.4,75 	"/>
	<polygon fill="#231F20" points="20.9,93.8 131.5,163.7 133.7,163.7 133.7,164.4 134,163.8 133,163.2 131.3,162.2 21.7,92.9 
		21.1,92.5 20.7,92.2 20.3,92.7 20.9,92.7 	"/>
	<polygon fill="#231F20" points="132.9,165 133.1,164.3 133.7,164.4 133.7,163.7 131.5,163.7 20.9,163.7 20.9,164 22.6,165 	"/>
	<polygon fill="#231F20" points="20.6,163.8 20.3,164.4 20.8,164 20.9,164.2 20.9,164 20.9,163.7 20.9,93.8 20.9,92.7 20.3,92.7 
		20.5,93.3 19.7,93.6 19.7,163.5 	"/>
</g>
</svg>
