<?xml version="1.0" encoding="utf-8"?>
<!-- Generator: Adobe Illustrator 18.1.1, SVG Export Plug-In . SVG Version: 6.00 Build 0)  -->
<svg version="1.1" id="Layer_1" xmlns="http://www.w3.org/2000/svg" xmlns:xlink="http://www.w3.org/1999/xlink" x="0px" y="0px"
	 width="112px" height="102px" viewBox="0 0 112 102" enable-background="new 0 0 112 102" xml:space="preserve">
<g>
	<polygon fill="#231F20" points="83.3,1.9 2.1,49.1 0.5,49.2 0.4,48.9 83.2,0.8 84.6,0 84.6,0.1 	"/>
	<polygon fill="#231F20" points="0.4,49.3 0,49.7 0,49.2 0.1,49.2 0.5,49.2 2.1,49.1 51.1,47 51,47.2 51.4,47.5 50.9,47.5 50.9,48 
		1.2,50.2 	"/>
	<polygon fill="#231F20" points="110.7,45.5 51.9,48 51.9,47.7 52.4,47 111.1,44.5 111.9,44.4 111.8,44.5 112,44.9 111.6,44.6 	"/>
	<polygon fill="#231F20" points="110.7,45.5 111.6,44.6 112,44.9 112,44.9 111.5,44.9 111.4,46.3 53.8,101.7 53.3,101.6 53.3,100.8 
			"/>
	<polygon fill="#231F20" points="52.8,102 52.3,102 52.3,101.6 52.3,100.7 50.9,48 50.9,47.5 51.4,47.5 51.8,47.8 51.9,47.7 
		51.9,48 53.3,100.8 53.3,101.6 53.3,101.9 53.3,101.9 	"/>
	<polygon fill="#231F20" points="85,1.2 52.4,47 51.9,47.7 51.8,47.8 51.4,47.5 51,47.2 51.1,47 83.3,1.9 84.6,0.1 84.7,0 85.1,0.3 
		85.5,0.6 	"/>
</g>
</svg>
