<?xml version="1.0" encoding="utf-8"?>
<!-- Generator: Adobe Illustrator 16.0.0, SVG Export Plug-In . SVG Version: 6.00 Build 0)  -->
<!DOCTYPE svg PUBLIC "-//W3C//DTD SVG 1.1//EN" "http://www.w3.org/Graphics/SVG/1.1/DTD/svg11.dtd">
<svg version="1.1" id="Layer_1" xmlns="http://www.w3.org/2000/svg" xmlns:xlink="http://www.w3.org/1999/xlink" x="0px" y="0px"
	 width="91.922px" height="108px" viewBox="0 0 91.922 108" enable-background="new 0 0 91.922 108" xml:space="preserve">
<path fill="#FEF732" d="M72.922,108c-4.265-2.559-6.439-6.07-6.582-11.294c-0.229-8.396-1.115-16.774-1.723-25.162
	c-0.516-0.001-1.031-0.002-1.547-0.002c0,3.413-0.045,6.828,0.011,10.241c0.075,4.648-0.173,9.042-5.42,11.152
	c-4.839,1.947-9.113,1.405-12.941-2.886c-0.62,0.894-1.068,1.49-1.466,2.119c-4.751,7.521-10.193,7.981-14.773,0.388
	c-2.544-4.22-3.617-9.529-4.471-14.5c-0.714-4.16-0.147-8.541-0.147-12.695c-8.385-1.659-18.889,2.82-21.794-9.809
	c15.367-6.354,31.208-8.521,48.916-6.131c-1.586,2.06-2.517,3.914-3.996,5.051c-2.993,2.3-6.178,4.403-9.48,6.235
	c-4.049,2.247-2.815,6.167-2.994,9.347c-0.402,7.18-0.126,14.396-0.126,21.822c5.174-1.191,7.825-5.139,7.533-10.247
	c-0.427-7.463,1.112-14.304,6.485-19.728c0.959-0.969,3.73-1.404,4.832-0.729c3.309,2.029,6.203,4.729,10.293,7.996
	c0.863-6.062,1.63-11.433,2.394-16.788c7.53,0.7,6.603,0.36,7.823,15.025c1.316-2.266,1.956-4.529,3.451-5.672
	c2.326-1.773,5.301-3.979,7.881-3.838c3.722,0.203,5.761,3.451,5.837,7.514c0.022,1.201,0.653,2.393,1.005,3.588
	c0,2.667,0,5.333,0,8c-5.385,7.287-9.68,8.284-15.836,3.02c0.176,2.254,0.393,3.957,0.43,5.664
	c0.164,7.438,0.275,14.877,0.406,22.316C75.588,108,74.256,108,72.922,108z M51.316,74.936c-0.529,3.762-1.471,7.219-1.278,10.613
	c0.081,1.438,2.353,3.205,4.013,3.883c0.674,0.275,3.139-1.765,3.455-3.074c0.914-3.776,1.148-7.719,1.678-11.795
	C56.279,74.699,54.176,74.8,51.316,74.936z M77.113,74.693c3.279-0.463,5.759-0.105,7.197-1.166
	c2.774-2.043,3.078-9.043,0.957-12.967C80.273,63.297,79.08,68.145,77.113,74.693z"/>
<path fill="#FEF732" d="M53.922,0c4.064,4.938,8.174,9.84,12.184,14.822c2.804,3.485,5.615,6.982,8.136,10.671
	c1.046,1.53,1.342,3.572,1.2,5.865c-5.549-4.903-11.08-9.827-16.651-14.703c-2.983-2.61-5.862-4.293-9.285-0.257
	c-2.446,2.887-5.552,5.206-8.262,7.883c-3.304,3.264-7.144,5.125-11.829,5.491c-3.656,0.286-4.458-1.473-2.751-4.053
	c1.795-2.714,4.316-4.972,6.646-7.304C39.476,12.241,45.713,6.134,51.922,0C52.588,0,53.256,0,53.922,0z"/>
</svg>
